<svg width="1" height="26" viewBox="0 0 1 26" fill="none" xmlns="http://www.w3.org/2000/svg">
<path d="M0 25C-1.20706e-08 25.2761 0.223858 25.5 0.5 25.5C0.776142 25.5 1 25.2761 1 25L0 25ZM1 25L1 23.9583L4.55327e-08 23.9583L0 25L1 25ZM1 21.875L1 19.7917L2.27664e-07 19.7917L1.36598e-07 21.875L1 21.875ZM1 17.7083L1 15.625L4.09794e-07 15.625L3.18729e-07 17.7083L1 17.7083ZM1 13.5417L1 11.4583L5.91925e-07 11.4583L5.0086e-07 13.5417L1 13.5417ZM1 9.375L1 7.29167L7.74056e-07 7.29167L6.82991e-07 9.375L1 9.375ZM1 5.20833L1 3.125L9.56187e-07 3.125L8.65122e-07 5.20833L1 5.20833ZM1 1.04167L1 2.18557e-08L1.09279e-06 -2.18557e-08L1.04725e-06 1.04167L1 1.04167Z" fill="url(#paint0_linear_1435_1212)"/>
<defs>
<linearGradient id="paint0_linear_1435_1212" x1="0.99999" y1="25" x2="0.99999" y2="0" gradientUnits="userSpaceOnUse">
<stop stopColor="#142D5D"/>
<stop offset="1" stopColor="#142D5D" stop-opacity="0"/>
</linearGradient>
</defs>
</svg>
