<svg width="18" height="52" viewBox="0 0 18 52" fill="none" xmlns="http://www.w3.org/2000/svg">
<g id="Group 1000005586">
<path id="Vector" d="M6.83473 1.24985C7.79735 -0.416616 10.2026 -0.416616 11.1653 1.24985L17.6611 12.5013C18.6237 14.1678 17.4211 16.2518 15.4958 16.2518H2.50416C0.578915 16.2518 -0.623734 14.1678 0.338891 12.5013L6.83473 1.24985Z" fill="#2D3142"/>
<path id="Vector_2" d="M6.83473 18.7518C7.79735 17.0853 10.2026 17.0853 11.1653 18.7518L17.6611 30.0033C18.6237 31.6697 17.4211 33.7537 15.4958 33.7537H2.50416C0.578915 33.7537 -0.623734 31.6697 0.338891 30.0033L6.83473 18.7518Z" fill="#2D3142"/>
<path id="Vector_3" d="M6.83473 36.2538C7.79735 34.5873 10.2026 34.5873 11.1653 36.2538L17.6611 47.5052C18.6237 49.1717 17.4211 51.2557 15.4958 51.2557H2.50416C0.578915 51.2557 -0.623734 49.1717 0.338891 47.5052L6.83473 36.2538Z" fill="#2D3142"/>
</g>
</svg>
