<svg width="21" height="59" viewBox="0 0 21 59" fill="none" xmlns="http://www.w3.org/2000/svg">
<g id="Group 1000005587">
<path id="Vector" d="M12.841 57.5132C11.7339 59.4297 8.96756 59.4297 7.86047 57.5132L0.389749 44.5731C-0.717344 42.6565 0.665807 40.2598 2.87999 40.2598H17.8214C20.0356 40.2598 21.4188 42.6565 20.3117 44.5731L12.841 57.5132Z" fill="#2D3142"/>
<path id="Vector_2" d="M12.841 37.3843C11.7339 39.3008 8.96756 39.3008 7.86047 37.3843L0.389749 24.4442C-0.717344 22.5276 0.665807 20.1309 2.87999 20.1309H17.8214C20.0356 20.1309 21.4188 22.5276 20.3117 24.4442L12.841 37.3843Z" fill="#2D3142"/>
<path id="Vector_3" d="M12.841 17.2534C11.7339 19.17 8.96756 19.17 7.86047 17.2534L0.389749 4.31335C-0.717344 2.39678 0.665807 0 2.87999 0H17.8214C20.0356 0 21.4188 2.39678 20.3117 4.31335L12.841 17.2534Z" fill="#2D3142"/>
</g>
</svg>
