<svg width="24" height="24" viewBox="0 0 24 24" fill="none" xmlns="http://www.w3.org/2000/svg">
<g id="Frame">
<path id="Vector" d="M4.87406 12.874L10.5858 18.5858C11.2525 19.2525 11.5858 19.5858 12 19.5858C12.4142 19.5858 12.7475 19.2525 13.4142 18.5858L19.126 12.874C19.5512 12.4488 19.7639 12.2361 19.8291 11.9597C19.8944 11.6832 19.7993 11.3979 19.6091 10.8274L18.9117 8.73509C18.4717 7.41505 18.2517 6.75503 17.7279 6.37752C17.2041 6 16.5084 6 15.117 6H8.88307C7.49162 6 6.7959 6 6.27213 6.37752C5.74835 6.75503 5.52835 7.41505 5.08833 8.73509L4.39091 10.8274C4.20073 11.3979 4.10564 11.6832 4.1709 11.9597C4.23617 12.2361 4.4488 12.4488 4.87406 12.874Z" stroke="#3F3F3F" stroke-width="2" stroke-linecap="round"/>
</g>
</svg>
